STARTFONT 2.1
COMMENT Seven-segment LCD digits, drawn for the TopHat-ShooterOS media_player example
FONT -tophat-lcd-medium-r-normal--20-200-75-75-c-150-iso10646-1
SIZE 20 75 75
FONTBOUNDINGBOX 12 20 0 0
STARTPROPERTIES 2
FONT_ASCENT 20
FONT_DESCENT 0
ENDPROPERTIES
CHARS 15
STARTCHAR U+0020
ENCODING 32
SWIDTH 750 0
DWIDTH 15 0
BBX 12 20 0 0
BITMAP
0000
0000
0000
0000
0000
0000
0000
0000
0000
0000
0000
0000
0000
0000
0000
0000
0000
0000
0000
0000
ENDCHAR
STARTCHAR U+002D
ENCODING 45
SWIDTH 750 0
DWIDTH 15 0
BBX 12 20 0 0
BITMAP
0000
0000
0000
0000
0000
0000
0000
0000
0000
3FC0
3FC0
0000
0000
0000
0000
0000
0000
0000
0000
0000
ENDCHAR
STARTCHAR U+002E
ENCODING 46
SWIDTH 250 0
DWIDTH 5 0
BBX 4 20 0 0
BITMAP
00
00
00
00
00
00
00
00
00
00
00
00
00
00
00
00
00
00
60
60
ENDCHAR
STARTCHAR U+002F
ENCODING 47
SWIDTH 500 0
DWIDTH 10 0
BBX 8 20 0 0
BITMAP
01
01
01
03
03
06
06
06
0C
0C
18
18
18
30
30
60
60
60
C0
C0
ENDCHAR
STARTCHAR U+0030
ENCODING 48
SWIDTH 750 0
DWIDTH 15 0
BBX 12 20 0 0
BITMAP
3FC0
3FC0
C030
C030
C030
C030
C030
C030
C030
0000
0000
C030
C030
C030
C030
C030
C030
C030
3FC0
3FC0
ENDCHAR
STARTCHAR U+0031
ENCODING 49
SWIDTH 750 0
DWIDTH 15 0
BBX 12 20 0 0
BITMAP
0000
0000
0030
0030
0030
0030
0030
0030
0030
0000
0000
0030
0030
0030
0030
0030
0030
0030
0000
0000
ENDCHAR
STARTCHAR U+0032
ENCODING 50
SWIDTH 750 0
DWIDTH 15 0
BBX 12 20 0 0
BITMAP
3FC0
3FC0
0030
0030
0030
0030
0030
0030
0030
3FC0
3FC0
C000
C000
C000
C000
C000
C000
C000
3FC0
3FC0
ENDCHAR
STARTCHAR U+0033
ENCODING 51
SWIDTH 750 0
DWIDTH 15 0
BBX 12 20 0 0
BITMAP
3FC0
3FC0
0030
0030
0030
0030
0030
0030
0030
3FC0
3FC0
0030
0030
0030
0030
0030
0030
0030
3FC0
3FC0
ENDCHAR
STARTCHAR U+0034
ENCODING 52
SWIDTH 750 0
DWIDTH 15 0
BBX 12 20 0 0
BITMAP
0000
0000
C030
C030
C030
C030
C030
C030
C030
3FC0
3FC0
0030
0030
0030
0030
0030
0030
0030
0000
0000
ENDCHAR
STARTCHAR U+0035
ENCODING 53
SWIDTH 750 0
DWIDTH 15 0
BBX 12 20 0 0
BITMAP
3FC0
3FC0
C000
C000
C000
C000
C000
C000
C000
3FC0
3FC0
0030
0030
0030
0030
0030
0030
0030
3FC0
3FC0
ENDCHAR
STARTCHAR U+0036
ENCODING 54
SWIDTH 750 0
DWIDTH 15 0
BBX 12 20 0 0
BITMAP
3FC0
3FC0
C000
C000
C000
C000
C000
C000
C000
3FC0
3FC0
C030
C030
C030
C030
C030
C030
C030
3FC0
3FC0
ENDCHAR
STARTCHAR U+0037
ENCODING 55
SWIDTH 750 0
DWIDTH 15 0
BBX 12 20 0 0
BITMAP
3FC0
3FC0
0030
0030
0030
0030
0030
0030
0030
0000
0000
0030
0030
0030
0030
0030
0030
0030
0000
0000
ENDCHAR
STARTCHAR U+0038
ENCODING 56
SWIDTH 750 0
DWIDTH 15 0
BBX 12 20 0 0
BITMAP
3FC0
3FC0
C030
C030
C030
C030
C030
C030
C030
3FC0
3FC0
C030
C030
C030
C030
C030
C030
C030
3FC0
3FC0
ENDCHAR
STARTCHAR U+0039
ENCODING 57
SWIDTH 750 0
DWIDTH 15 0
BBX 12 20 0 0
BITMAP
3FC0
3FC0
C030
C030
C030
C030
C030
C030
C030
3FC0
3FC0
0030
0030
0030
0030
0030
0030
0030
3FC0
3FC0
ENDCHAR
STARTCHAR U+003A
ENCODING 58
SWIDTH 250 0
DWIDTH 5 0
BBX 4 20 0 0
BITMAP
00
00
00
00
00
60
60
00
00
00
00
00
00
60
60
00
00
00
00
00
ENDCHAR
ENDFONT
