# bolt: an energy bolt along +Z (front), two materials
mtllib bolt.mtl
v 0.0000 0.0000 0.9000
v 0.0000 0.0000 -0.9000
v 0.2200 0.0000 0.0000
v 0.0000 0.2200 0.0000
v -0.2200 0.0000 0.0000
v 0.0000 -0.2200 0.0000
vn 0.6968 0.6968 0.1703
vn -0.6968 0.6968 0.1703
vn -0.6968 -0.6968 0.1703
vn 0.6968 -0.6968 0.1703
vn 0.6968 0.6968 -0.1703
vn -0.6968 0.6968 -0.1703
vn -0.6968 -0.6968 -0.1703
vn 0.6968 -0.6968 -0.1703
usemtl core
f 1//1 3//1 4//1
f 1//2 4//2 5//2
f 1//3 5//3 6//3
f 1//4 6//4 3//4
usemtl trail
f 2//5 4//5 3//5
f 2//6 5//6 4//6
f 2//7 6//7 5//7
f 2//8 3//8 6//8
